<svg width="512" height="512" xmlns="http://www.w3.org/2000/svg" xmlns:xlink="http://www.w3.org/1999/xlink" xml:space="preserve" overflow="hidden"><defs><clipPath id="clip0"><rect x="256" y="80" width="512" height="512"/></clipPath></defs><g clip-path="url(#clip0)" transform="translate(-256 -80)"><path d="M512 80C646.4 80 736 115.2 736 160L736 176 736 208C753.7 208 768 222.3 768 240L768 304C768 321.7 753.7 336 736 336L736 496C736 513.7 721.7 528 704 528L704 560C704 577.7 689.7 592 672 592L640 592C622.3 592 608 577.7 608 560L608 528 416 528 416 560C416 577.7 401.7 592 384 592L352 592C334.3 592 320 577.7 320 560L320 528C302.3 528 288 513.7 288 496L288 336C270.3 336 256 321.7 256 304L256 240C256 222.3 270.3 208 288 208L288 208 288 176 288 176 288 160C288 115.2 377.6 80 512 80ZM352 240 352 336C352 353.7 366.3 368 384 368L496 368 496 208 384 208C366.3 208 352 222.3 352 240ZM528 368 640 368C657.7 368 672 353.7 672 336L672 240C672 222.3 657.7 208 640 208L528 208 528 368ZM368 480C385.673 480 400 465.673 400 448 400 430.327 385.673 416 368 416 350.327 416 336 430.327 336 448 336 465.673 350.327 480 368 480ZM656 480C673.673 480 688 465.673 688 448 688 430.327 673.673 416 656 416 638.327 416 624 430.327 624 448 624 465.673 638.327 480 656 480ZM608 160C608 151.2 600.8 144 592 144L432 144C423.2 144 416 151.2 416 160 416 168.8 423.2 176 432 176L592 176C600.8 176 608 168.8 608 160Z" fill="#DC3545"/></g></svg>